<?xml version="1.0" encoding="utf-8"?>
<!-- Generator: Adobe Illustrator 25.4.1, SVG Export Plug-In . SVG Version: 6.00 Build 0)  -->
<svg version="1.1" id="Layer_1" xmlns="http://www.w3.org/2000/svg" xmlns:xlink="http://www.w3.org/1999/xlink" x="0px" y="0px"
	 viewBox="0 0 12 12" style="enable-background:new 0 0 12 12;" width="1em" height="1em" xml:space="preserve">
<style type="text/css">
	.st0{fill:url(#SVGID_1_);}
	.st1{fill:url(#SVGID_00000008134109740196461500000003363825356751132082_);}
	.st2{fill:#FFEC6B;}
	.st3{fill:#5D0B07;}
</style>
<g>
	
		<linearGradient id="SVGID_1_" gradientUnits="userSpaceOnUse" x1="-13.4268" y1="12.6919" x2="-13.4097" y2="12.6919" gradientTransform="matrix(4.050260e-14 -661.4576 -661.4576 -4.050260e-14 8401.1484 -8869.7617)">
		<stop  offset="0" style="stop-color:#ffcb00"/>
		<stop  offset="0.1297" style="stop-color:#ffcb00"/>
		<stop  offset="0.3894" style="stop-color:#ffcb00"/>
		<stop  offset="0.6295" style="stop-color:#ffcb00"/>
		<stop  offset="0.8406" style="stop-color:#ffcb00"/>
		<stop  offset="1" style="stop-color:#ffcb00"/>
	</linearGradient>
	<circle class="st0" cx="6" cy="6" r="5.8"/>
	
		<linearGradient id="SVGID_00000042016215856615262380000015064322333883740324_" gradientUnits="userSpaceOnUse" x1="-13.5176" y1="11.2418" x2="-13.5005" y2="11.2418" gradientTransform="matrix(3.696266e-14 603.6461 603.6461 -3.696266e-14 -6780.0952 8160.6733)">
		<stop  offset="0" style="stop-color:#070100"/>
		<stop  offset="1" style="stop-color:#5C0B07"/>
	</linearGradient>
	<path style="fill:url(#SVGID_00000042016215856615262380000015064322333883740324_);" d="M6,0.8C3.2,0.8,0.8,3.2,0.8,6
		s2.3,5.2,5.2,5.2s5.2-2.3,5.2-5.2S8.8,0.8,6,0.8z M6,10.2c-2.3,0-4.2-1.9-4.2-4.2S3.7,1.8,6,1.8s4.2,1.9,4.2,4.2S8.3,10.2,6,10.2z"
		/>
	<g>
		<g transform="translate(0.000000,504.000000) scale(0.100000,-0.100000)">
			<path class="st2" d="M79.4,5006.6c-2.8-0.9-10.4-3.8-15.2-5.9c-1.6-0.7-5.2-2.6-7.4-3.8c-5.6-3.2-12.9-8.7-16.5-12.4
				c-2-2.1-2.6-3.3-2.6-5.2c0-1.3,0.1-1.7,1.2-4.1c0.7-1.5,1.1-2.2,2.1-3.5c1.1-1.4,2.5-1.6,7.5-0.8c1.1,0.2,3.3,0.5,4.7,0.7
				s3.8,0.5,5.3,0.7c1.5,0.2,3.6,0.4,4.7,0.5c2.3,0.2,5.9,0.2,6,0.1c0.2-0.3-1.1-1.1-5.7-3.5c-1.3-0.7-3.2-1.7-4.2-2.3
				c-1-0.6-3.4-1.8-5.3-2.8c-5.1-2.6-13.3-7.2-16.2-8.9c-0.9-0.5-1.7-1.1-1.9-1.4c-0.2-0.3-0.4-0.8-0.7-2.3
				c-0.4-1.9-0.4-2.2-0.1-2.6c0.5-0.5,1.7-0.1,6.6,1.7c3.4,1.3,6.2,2.6,16.7,7.6c11.6,5.5,15.9,7.7,17.5,8.8
				c1.1,0.8,1.7,1.5,2.1,2.5c0.3,0.7,0.3,1.1,0.3,2.8c0.1,2.6,0,3-0.8,4c-0.3,0.4-1.2,1.3-1.9,2c-1.9,1.8-1.6,1.7-7.4,1.6
				c-2.4-0.1-6.2-0.2-8.4-0.4c-5.9-0.3-9.3-0.5-10.4-0.5c-0.9,0-1,0-1.2,0.3c-0.3,0.4-0.2,0.8,0.1,1.2c0.9,1.2,5.8,4.7,10.1,7.2
				c3.5,2.1,9.2,4.6,13.2,5.9c1.8,0.6,3.1,0.7,3.3,0.4c0.2-0.2-0.4-1.4-1.8-3.7c-1.5-2.6-1.6-2.9-0.8-3.6c0.5-0.4,3.3-1.7,4.4-2
				c1.4-0.4,2.1,0.2,3.4,2.9c2,4,2.9,6,2.9,6c0,0,0.4,0.9,0.9,1.8c0.9,1.9,1.3,3.2,1.3,4c0,1.6-1.3,4.8-2.4,6
				C81.7,5006.9,81.1,5007.1,79.4,5006.6z"/>
		</g>
		<g transform="translate(0.000000,504.000000) scale(0.100000,-0.100000)">
			<path class="st3" d="M79.4,5009.7c-2.8-0.9-10.4-3.8-15.2-5.9c-1.6-0.7-5.2-2.6-7.4-3.8c-5.6-3.2-12.9-8.7-16.5-12.4
				c-2-2.1-2.6-3.3-2.6-5.2c0-1.3,0.1-1.7,1.2-4.1c0.7-1.5,1.1-2.2,2.1-3.5c1.1-1.4,2.5-1.6,7.5-0.8c1.1,0.2,3.3,0.5,4.7,0.7
				c1.4,0.2,3.8,0.5,5.3,0.7c1.5,0.2,3.6,0.4,4.7,0.5c2.3,0.2,5.9,0.2,6,0.1c0.2-0.3-1.1-1.1-5.7-3.5c-1.3-0.7-3.2-1.7-4.2-2.3
				c-1-0.6-3.4-1.8-5.3-2.8c-5.1-2.7-13.3-7.2-16.2-8.9c-0.9-0.5-1.7-1.1-1.9-1.4c-0.2-0.3-0.4-0.8-0.7-2.3
				c-0.4-1.9-0.4-2.2-0.1-2.6c0.5-0.5,1.7-0.1,6.6,1.7c3.4,1.3,6.2,2.6,16.7,7.6c11.6,5.5,15.9,7.7,17.5,8.8
				c1.1,0.8,1.7,1.5,2.1,2.5c0.3,0.7,0.3,1.1,0.3,2.8c0.1,2.6,0,3-0.8,4c-0.3,0.4-1.2,1.3-1.9,2c-1.9,1.8-1.6,1.7-7.4,1.6
				c-2.4-0.1-6.2-0.2-8.4-0.4c-5.9-0.3-9.3-0.5-10.4-0.5c-0.9,0-1,0-1.2,0.3c-0.3,0.4-0.2,0.8,0.1,1.2c0.9,1.2,5.8,4.7,10.1,7.2
				c3.5,2.1,9.2,4.6,13.2,5.9c1.8,0.6,3.1,0.7,3.3,0.4c0.2-0.2-0.4-1.4-1.8-3.7c-1.5-2.6-1.6-2.9-0.8-3.6c0.5-0.4,3.3-1.7,4.4-2
				c1.4-0.4,2.1,0.2,3.4,2.9c2,4,2.9,6,2.9,6c0,0,0.4,0.9,0.9,1.8c0.9,1.9,1.3,3.2,1.3,4c0,1.6-1.3,4.8-2.4,6
				C81.7,5010,81.1,5010.2,79.4,5009.7z"/>
		</g>
	</g>
</g>
</svg>
